<svg width="108" height="108" fill="none" xmlns="http://www.w3.org/2000/svg"><g filter="url(#filter0_d_666_2)"><rect x="4" width="100" height="100" rx="50" fill="#000"/><path d="M84.495 32.221l-6.411-6.385c-.888-.888-2.65-.578-3.926.68l-5.88 5.808L60.192 24H35v51h39.634V45.152l9.164-9.048c1.266-1.258 1.588-3 .697-3.883zm-23.63-1.567l4.456 4.59-2.439 2.41h-2.016v-7zm.927 24.723l-8.87 3.56-1.904-1.9 3.624-8.778 7.15 7.118zm8.667 15.49H39.17V28.133h18.568v12.62h2.006L57.368 43.1H43.624v2.066h11.655l-1.885 1.857-1.919 4.657h-7.851v2.068h7l-2.69 6.511h-4.31v2.066h22.393v-2.066H53.94l9.086-3.648 2.897-2.863h.09v-.09l4.442-4.384v21.594h.004z" fill="#fff"/></g><defs><filter id="filter0_d_666_2" x="0" y="0" width="108" height="108" filterUnits="userSpaceOnUse" color-interpolation-filters="sRGB"><feFlood flood-opacity="0" result="BackgroundImageFix"/><feColorMatrix in="SourceAlpha" values="0 0 0 0 0 0 0 0 0 0 0 0 0 0 0 0 0 0 127 0" result="hardAlpha"/><feOffset dy="4"/><feGaussianBlur stdDeviation="2"/><feComposite in2="hardAlpha" operator="out"/><feColorMatrix values="0 0 0 0 0 0 0 0 0 0 0 0 0 0 0 0 0 0 0.25 0"/><feBlend in2="BackgroundImageFix" result="effect1_dropShadow_666_2"/><feBlend in="SourceGraphic" in2="effect1_dropShadow_666_2" result="shape"/></filter></defs></svg>