<svg width="100" height="100" fill="none" xmlns="http://www.w3.org/2000/svg"><rect width="100" height="100" rx="50" fill="#000"/><path d="M31.51 53.125H25V68.75l4.628-4.253C34.163 70.853 41.597 75 50 75c12.75 0 23.269-9.544 24.806-21.875h-6.315C67.003 61.994 59.29 68.75 50 68.75c-6.581 0-12.375-3.394-15.719-8.528l7.722-7.097H31.51zM50 25c-12.75 0-23.269 9.544-24.806 21.875h6.315C32.997 38.006 40.71 31.25 50 31.25c6.778 0 12.719 3.597 16.013 8.987l-6.638 6.638H75V31.25l-4.475 4.475C66.009 29.241 58.5 25 50 25z" fill="#fff"/></svg>