<svg width="100" height="100" fill="none" xmlns="http://www.w3.org/2000/svg"><rect width="100" height="100" rx="50" fill="#000"/><path d="M76.36 25H40.265c-.906 0-1.641.727-1.641 1.623v3.355h29.422c2.714 0 4.922 2.185 4.922 4.87V58.55h3.39c.906 0 1.641-.727 1.641-1.624V26.623c0-.896-.735-1.623-1.64-1.623z" fill="#fff"/><path d="M68.047 33.225H31.953c-.906 0-1.64.727-1.64 1.623v3.355h29.421c2.714 0 4.922 2.185 4.922 4.87v23.702h3.39c.907 0 1.641-.727 1.641-1.624V34.85c0-.897-.734-1.624-1.64-1.624z" fill="#fff"/><path d="M59.734 41.45H23.641c-.906 0-1.641.727-1.641 1.624v30.303c0 .896.735 1.623 1.64 1.623h36.094c.906 0 1.641-.727 1.641-1.623V43.074c0-.897-.735-1.624-1.64-1.624zm-3.28 27.056c0 .897-.735 1.624-1.642 1.624h-26.25c-.906 0-1.64-.727-1.64-1.623V47.944c0-.897.734-1.624 1.64-1.624h26.25c.907 0 1.641.727 1.641 1.624v20.563z" fill="#fff"/><path d="M30.203 65.877v1.006h8.76l-4.622-5.613-4.138 4.607z" fill="#fff"/><path d="M30.203 60.99l2.967-3.302a1.652 1.652 0 012.498.053l4.343 5.273 7.016-8.52a1.652 1.652 0 012.498-.053l3.647 4.06v-8.934H30.203V60.99zm9.844-8.176c.906 0 1.64.727 1.64 1.623 0 .897-.734 1.623-1.64 1.623-.906 0-1.64-.726-1.64-1.623 0-.896.734-1.623 1.64-1.623z" fill="#fff"/><path d="M42.127 65.584l1.07 1.3h9.975v-3.496l-4.82-5.365-6.225 7.561z" fill="#fff"/></svg>