<svg width="100" height="100" fill="none" xmlns="http://www.w3.org/2000/svg"><rect width="100" height="100" rx="50" fill="#000"/><path d="M77 46.045c0-2.818-2.414-5.11-5.38-5.11H58.644l1.889-4.894a1.82 1.82 0 00.017-.048c.91-2.593.681-5.315-.663-7.87C58.873 26.197 56.835 25 54.567 25h-.63c-1.526 0-2.818 1.133-2.94 2.578-.213 2.529-1.355 4.923-3.215 6.744L37.39 44.342h-1.042v-1.704c0-.94-.803-1.703-1.794-1.703h-10.76c-.991 0-1.794.762-1.794 1.703v30.659c0 .94.803 1.703 1.794 1.703h10.76c.99 0 1.794-.763 1.794-1.703v-1.704h29.891c2.967 0 5.38-2.292 5.38-5.11a4.88 4.88 0 00-.692-2.506c1.494-.91 2.486-2.5 2.486-4.306a4.88 4.88 0 00-.693-2.507c1.494-.91 2.487-2.5 2.487-4.306a4.88 4.88 0 00-.693-2.507c1.494-.909 2.486-2.5 2.486-4.306zm-44.24 0v25.548h-7.173V44.341h7.174v1.704zm38.86 1.703h-5.381c-.99 0-1.793.763-1.793 1.703 0 .94.803 1.703 1.793 1.703h3.587c.989 0 1.794.765 1.794 1.704s-.805 1.703-1.794 1.703h-5.38c-.99 0-1.794.763-1.794 1.703 0 .941.803 1.704 1.794 1.704h3.587c.989 0 1.793.764 1.793 1.703 0 .94-.804 1.703-1.793 1.703h-1.794a1.91 1.91 0 00-.276.022h-3.43c-.99 0-1.794.763-1.794 1.704 0 .94.803 1.703 1.794 1.703h3.587c.08 0 .159-.007.236-.017.935.058 1.677.796 1.677 1.698 0 .94-.805 1.703-1.794 1.703H36.348v-20.44h1.793c.48 0 .94-.182 1.278-.507l10.924-10.532.008-.01c2.306-2.254 3.77-5.18 4.163-8.292h.054c.9 0 1.709.476 2.11 1.24.92 1.746 1.08 3.512.477 5.247l-2.763 7.159a1.631 1.631 0 00.214 1.561 1.82 1.82 0 001.47.728H71.62c.989 0 1.793.764 1.793 1.704 0 .939-.804 1.703-1.793 1.703z" fill="#fff"/></svg>